<svg width="14" height="14" viewBox="0 0 14 14" fill="none" xmlns="http://www.w3.org/2000/svg">
<path d="M13.5889 2.47139C14.1357 1.93428 14.1357 1.06201 13.5889 0.524902C13.042 -0.012207 12.1539 -0.012207 11.607 0.524902L7.00011 5.05381L2.38886 0.529199C1.84198 -0.00791022 0.953857 -0.00791022 0.406982 0.529199C-0.139893 1.06631 -0.139893 1.93857 0.406982 2.47568L5.01823 7.00029L0.411357 11.5292C-0.135518 12.0663 -0.135518 12.9386 0.411357 13.4757C0.958232 14.0128 1.84636 14.0128 2.39323 13.4757L7.00011 8.94678L11.6114 13.4714C12.1582 14.0085 13.0464 14.0085 13.5932 13.4714C14.1401 12.9343 14.1401 12.062 13.5932 11.5249L8.98198 7.00029L13.5889 2.47139Z" fill="white"/>
</svg>
